<svg width="21" height="109" viewBox="0 0 21 109" xmlns="http://www.w3.org/2000/svg" xmlns:xlink="http://www.w3.org/1999/xlink"><title>Group 10</title><defs><path id="path-1" d="M0 0H21V19H0z"/></defs><g id="Mammoth-Page" stroke="none" stroke-width="1" fill="none" fill-rule="evenodd"><g id="Colossal_Mammoth_8-03-21" transform="translate(-1381.000000, -884.000000)"><g id="Group-10" transform="translate(1391.500000, 938.500000) rotate(-90.000000) translate(-1391.500000, -938.500000) translate(1337.000000, 928.000000)"><g id="Group-3" transform="translate(0.000000, 1.000000)"><mask id="mask-2" fill="#fff"><use xlink:href="#path-1"/></mask><g id="Clip-2"/><path d="M16.1886164 11.9679571C16.0692056 11.9532219 15.9556197 12.023951 15.9090203 12.1388858 15.4051648 13.406116 14.557639 14.4935763 13.4509042 15.295173 12.2247587 16.17634 10.7743537 16.6301852 9.26569955 16.6036618 5.41251526 16.5388267 2.35152003 13.3795926 2.36313672 9.47475552 2.37773216 5.56697144 5.52318873 2.39300202 9.38802286 2.39300202 10.6199933 2.39300202 11.8344891 2.72307126 12.8975369 3.34489814 13.8819483 3.92546636 14.7178243 4.73885128 15.3236159 5.70842969 15.3818651 5.79684109 15.4838012 5.84399384 15.5857373 5.82925861L17.2458393 5.602336C17.5399978 5.55223621 17.8283313 5.71727083 17.9419172 5.99429323 18.390436 7.10827693 18.6146954 8.28120156 18.6146954 9.4983319 18.6146954 10.2321466 18.5331466 10.9571201 18.3642239 11.6614643 18.2884999 11.9944806 17.9710418 12.2066679 17.6419339 12.150674L16.1886164 11.9679571zM20.1961611 5.19859059C20.1553867 5.09544395 20.0534506 5.03355597 19.9427771 5.0482912L18.282675 5.26931971C18.0176412 5.31057837 17.7496949 5.18090831 17.6215467 4.94219751 16.8643071 3.55119142 15.7750472 2.3664786 14.4469655 1.50299388 12.9383113.51868024 11.187923.0 9.38802286.0 4.20675691.0-.00757239543 4.27027084-.00175350688 9.51306713.00698990347 14.8030162 4.24753134 19.0467636 9.47539665 18.9996108 11.4762565 18.9789815 13.3780928 18.3306312 14.9828581 17.122342 15.7663098 16.5299856 16.4536503 15.8256414 17.0215799 15.0181506 17.484661 14.3668532 17.8603684 13.6625091 18.1457894 12.9198533 18.2535504 12.6339897 18.5447964 12.466008 18.8418673 12.5161078L20.3534339 12.7017718C20.4728448 12.716507 20.5835183 12.6398838 20.6155553 12.5220019 20.8689393 11.5376883 21 10.5239042 21 9.4983319 21 8.01596735 20.7320537 6.56896736 20.1961611 5.19859059v0z" id="Fill-1" fill="#fff" mask="url(#mask-2)"/></g><path d="M43.4618677 5.00752828C43.4382906 5.12693135 43.5001805 5.24633441 43.6092246 5.29875527 44.8381813 5.88994605 45.8608382 6.8131356 46.57994 7.97804355 47.3668259 9.26235457 47.7145882 10.7417877 47.5790199 12.2445189 47.2312575 16.0828906 43.8538371 18.9077924 39.9636145 18.6165654 36.0645506 18.3253384 33.1292008 14.9616667 33.4121261 11.1058214 33.5034874 9.87684351 33.921981 8.69154967 34.6204528 7.67225522 35.2688232 6.73450432 36.1411762 5.95692826 37.1520446 5.4210706 37.246353 5.37156201 37.2994015 5.27545711 37.2935072 5.17061539L37.1874102 3.49606022C37.160886 3.20192096 37.3436086 2.92525532 37.629481 2.83206268 38.7700235 2.46511668 39.9636145 2.32241546 41.1778355 2.40978355 41.9087258 2.46220441 42.6248804 2.59908109 43.3145108 2.81458907 43.6416431 2.91651851 43.83026 3.24851728 43.7506872 3.57177923L43.4618677 5.00752828zM37.0046877.525544944C36.8956436.560492183 36.8278594.659509359 36.8337536.767263344L36.9280621 2.43890625C36.9545863 2.70974735 36.8072294 2.9660271 36.5596698 3.07669335 35.1126249 3.73195408 33.8541968 4.73086264 32.8963769 5.99478777 31.8059357 7.43053682 31.1575653 9.14003923 31.0249441 10.9339975 30.6477104 16.1032765 34.5939285 20.608558 39.8280462 20.975504 45.1063708 21.3482745 49.6479109 17.4225348 49.9809376 12.2037471 50.1076645 10.2088423 49.6007567 8.263446 48.5132627 6.57724174 47.9798307 5.75306937 47.325566 5.01917736 46.5652043 4.39303934 45.9492524 3.88630438 45.2714106 3.46111298 44.5523088 3.12620194 44.2752778 2.99806207 44.1279209 2.69227373 44.1986522 2.39813447L44.4963132.907052298C44.5198903.790561503 44.4521061.674070708 44.3371677.6362112 43.3764007.307124704 42.3743736.103265813 41.3517167.0304590659 39.8693061-.0743826496 38.4075255.0916167332 37.0046877.525544944v0z" id="Fill-4" fill="#fff"/><path d="M63.810977 8.03204304C63.9303778 8.04677827 64.0468663 7.97604915 64.0934617 7.86111433 64.5943625 6.59388421 65.4418167 5.50642395 66.5513701 4.70482723 67.7774121 3.82071319 69.2247823 3.36686799 70.7362212 3.39339141 74.5890799 3.45822644 77.6498165 6.62040763 77.6353072 10.5252446 77.6236066 14.4300816 74.4784158 17.606998 70.6139082 17.606998 69.3791296 17.606998 68.1647365 17.2769288 67.1017785 16.6551019 66.1203625 16.0745337 65.2845571 15.2611488 64.6759045 14.2915704 64.6176602 14.203159 64.5186449 14.1560062 64.4138053 14.1677944L62.7538435 14.3976641C62.4597099 14.4477639 62.1743129 14.2827293 62.0578244 14.0027598 61.6122557 12.8917232 61.385103 11.7187986 61.385103 10.4987212 61.385103 9.76785359 61.4695572 9.04288008 61.6355534 8.3385359 61.7112709 8.00551962 62.0287022 7.79333225 62.3606946 7.84932614L63.810977 8.03204304zM59.803771 14.8014095C59.844542 14.9016091 59.9493817 14.9664441 60.0571336 14.9517089L61.7170954 14.7306804C61.985019 14.6894217 62.2500305 14.8190918 62.3781679 15.0578026 63.1353434 16.4488086 64.2245114 17.6335214 65.5524808 18.4970061 67.0639197 19.4783727 68.8141601 20 70.6139082 20 75.7918242 20 80.0087096 15.7297292 79.9999865 10.486933 79.9941485 5.19403699 75.7539654.95323668 70.5236296 1.00038943 68.5229388 1.02101876 66.6212632 1.66936905 65.0166335 2.87765823 64.233248 3.47001463 63.5459656 4.17435881 62.9780839 4.98184962 62.5179541 5.63314696 62.1422786 6.33749114 61.8568816 7.08014693 61.7462175 7.36306342 61.4549961 7.53399213 61.1579503 7.48389234L59.6465114 7.29822839C59.5300229 7.28349316 59.4193588 7.35716933 59.3873244 7.47799824 59.1310496 8.46231187 59 9.47609596 59 10.4987212 59 11.9840328 59.2679237 13.4310327 59.803771 14.8014095v0z" id="Fill-6" fill="#fff"/><path d="M97.0819464 16.2062817C97.0966851 16.0868852 97.0259392 15.9733129 96.9109771 15.9267191 95.6404983 15.4345724 94.5439366 14.5958845 93.736254 13.4892825 92.8460345 12.2720202 92.3773428 10.8247012 92.3920816 9.31913999 92.4274545 5.46641759 95.5668046 2.37958029 99.4696211 2.36203464 103.378333 2.34463496 106.579586 5.46641759 106.606116 9.33370055 106.617907 10.5655234 106.296602 11.7798735 105.680523 12.8515302 105.114556 13.8387357 104.303926 14.6803357 103.340012 15.2947911 103.25158 15.3501212 103.204416 15.452045 103.219155 15.5539689L103.46087 17.2167841C103.513929 17.5079952 103.351803 17.7962941 103.071767 17.9127786 101.963415 18.3670678 100.790212 18.6029488 99.5727922 18.6116851 98.8388033 18.6175093 98.1136577 18.5417945 97.4061985 18.3787163 97.0760509 18.3059135 96.8608654 17.9884934 96.9109771 17.6594249L97.0819464 16.2062817zM103.885345 20.160928C103.988517 20.1201584 104.050419 20.0182346 104.032733 19.9075744L103.802809 18.2476713C103.758592 17.9826692 103.885345 17.7176671 104.121165 17.5866222 105.506606 16.8178249 106.682757 15.7199592 107.537604 14.3862125 108.51036 12.8690029 109.014425 11.1130002 108.999686 9.31331577 108.958417 4.13267091 104.657655-.0462078907 99.4136139.000385879865 94.1224088.0469796504 89.9100789 4.3219581 90.0014591 9.54919674 90.0338843 11.5469046 90.6971273 13.4456008 91.9204421 15.0414374 92.5158869 15.818971 93.2292416 16.5004049 94.0398719 17.0624422 94.6942716 17.5196436 95.4046786 17.8894817 96.1504585 18.1690443 96.4334421 18.2738803 96.6073592 18.5650913 96.5572475 18.8621266L96.3833304 20.3764242C96.3715394 20.4929086 96.4452331 20.6035688 96.563143 20.635602 97.5476903 20.8831314 98.5646629 21.0054401 99.5904787 20.9998144 101.073195 20.9879674 102.520539 20.7054927 103.885345 20.160928v0z" id="Fill-8" fill="#fff"/></g></g></g></svg>